<?xml version="1.0" encoding="utf-8"?>
<!-- Generator: Adobe Illustrator 23.0.6, SVG Export Plug-In . SVG Version: 6.00 Build 0)  -->
<svg version="1.1" id="Layer_1" xmlns="http://www.w3.org/2000/svg" xmlns:xlink="http://www.w3.org/1999/xlink" x="0px" y="0px"
	 width="864px" height="864px" viewBox="0 0 864 864" enable-background="new 0 0 864 864" xml:space="preserve">
<g>
	<path d="M256.0919,397.8308c-0.0316-0.0942-0.0728-0.1847-0.0975-0.2811C256.0564,397.7924,256.107,397.9031,256.0919,397.8308z"/>
	<path d="M561.1791,249.8492c-0.0022-3.2487-4.7594-3.5515-6.8521-2.9924c-15.834,4.2308-28.6285-6.3125-36.8265-18.9032
		c-3.4185-5.2502-6.261-10.877-8.6428-16.6672c-0.8173-1.9866-1.5832-3.996-2.2758-6.0295
		c-0.1878-0.5517-1.1702-3.7681-0.5358-1.5752c-0.5253-1.8163-2.1088-3.2946-4.1407-3.2845
		c-29.3862,0.1456-58.7722,0.291-88.1584,0.4364c-46.8515,0.2321-93.7027,0.4641-140.5541,0.696
		c-10.7714,0.0534-21.5428,0.1067-32.3142,0.16c-0.0505,0.0003-0.1063,0.006-0.1576,0.0069
		c-2.5578-0.2134-5.3911,0.8898-5.8269,3.3399c-3.051,17.1456-11.4299,32.7397-27.0366,41.344
		c-6.4398,3.5504-13.1109,5.8071-19.7171,6.1638c-2.1445,0.1157-4.9838,1.9214-4.6872,4.3736
		c3.7705,31.1747,7.541,62.3493,11.3116,93.5239c0.541,4.4729,1.082,8.9456,1.623,13.4183c0.2255,1.8643,2.3411,3.2719,4.141,3.2843
		c16.517,0.1151,33.9757,3.5388,46.0306,15.6896c3.0636,3.0881,5.6514,6.5546,7.6059,10.4446
		c0.5965,1.1872,1.0847,2.4043,1.5889,3.6305c0.2321,0.5638,0.3216,0.8456,0.3375,0.9219c0.5627,1.6919,2.1604,3.0098,4.0435,3.0032
		c26.8905-0.0928,53.7807-0.1858,80.6711-0.2787c42.8788-0.148,85.7579-0.2963,128.637-0.4443
		c9.8671-0.0342,19.7344-0.0682,29.6018-0.1024c2.4636-0.0085,5.1321-0.7236,5.9848-3.3468
		c5.3438-16.4395,14.3011-38.4791,32.4384-44.4812c4.3099-1.4264,7.3859-1.5903,11.8094-0.9487
		c0.3617,0.0526,1.4143,0.2934,2.9547,0.7287c0.6118,0.173,2.8132,1.1669,0.5948,0.1439c3.0755,1.4181,8.416,0.6036,8.4133-3.642
		c-0.0181-28.7749-0.0359-57.5498-0.0538-86.3246C561.184,258.0417,561.1816,253.9454,561.1791,249.8492z M533.9626,345.0973
		c-20.4366,6.7639-31.2523,28.0524-37.8695,47.2607c-25.2675,0.0873-50.5349,0.1747-75.8024,0.262
		c-42.8791,0.148-85.7579,0.2963-128.637,0.4443c-8.8268,0.0306-17.6534,0.061-26.4802,0.0916
		c-8.1644-23.1668-36.2297-32.5107-58.9715-33.571c-3.6426-30.1157-7.2851-60.2318-10.9274-90.3475
		c-0.3886-3.2128-0.7772-6.4257-1.1658-9.6385c7.1349-1.2336,14.2539-4.1056,20.346-7.5828
		c16.1155-9.1981,25.9005-24.9366,29.8253-42.6852c27.6135-0.1368,55.2268-0.2735,82.8403-0.4103
		c46.8515-0.2319,93.7029-0.4638,140.5544-0.6959c9.7325-0.0482,19.4653-0.0964,29.1981-0.1444
		c8.0299,24.5436,26.7954,49.9706,54.1105,47.117c0.017,27.3584,0.0341,54.7168,0.051,82.0753
		c0.0014,2.075,0.0027,4.1501,0.0038,6.2251C545.3171,342.6857,539.3139,343.326,533.9626,345.0973z"/>
	<g>
		<path d="M118.3089,150.2975c11.1171,0,20.1291-9.0123,20.1291-20.1295c0-11.117-9.0119-20.1293-20.1291-20.1293
			s-20.1296,9.0123-20.1296,20.1293C98.1793,141.2852,107.1918,150.2975,118.3089,150.2975z"/>
	</g>
	<g>
		<ellipse cx="110.2538" cy="785.9968" rx="18.0167" ry="14.5916"/>
	</g>
	<g>
		<path d="M657.9564,140.7901c10.0277,0,18.1564-8.129,18.1564-18.1567c0-10.0276-8.1287-18.1566-18.1564-18.1566
			c-10.0278,0-18.1568,8.129-18.1568,18.1566C639.7996,132.6611,647.9286,140.7901,657.9564,140.7901z"/>
	</g>
	<g>
		<circle cx="681.5449" cy="778.8237" r="17.4243"/>
	</g>
	<path d="M804.5343,297.1707c-0.0299-4.9691-0.0244-9.9613-0.3482-14.9223c-0.337-5.1623-1.542-8.3169-7.7217-8.9417
		c-0.1074-39.6184-0.7006-79.2375-2.2577-118.8165c-0.9543-24.254-2.2164-48.5376-4.7748-72.6823
		c-1.6065-15.1638-3.0247-31.3089-8.2858-45.7487c-1.3986-3.8386-3.1738-8.4189-6.6766-10.8734
		c-3.0543-2.1403-7.5512-2.6353-11.1572-3.1966c-16.0229-2.4935-32.4954-2.7495-48.6708-3.1963
		c-57.5751-1.5903-115.2512-0.4848-172.8235,0.6673c-67.401,1.3488-134.7882,3.3677-202.1628,5.6739
		c-48.486,1.6596-96.9668,3.4786-145.4405,5.4692c-8.0823,0.3319-16.5343,0.0087-24.5702,1.0299
		c-2.1959,0.2791-4.0421,1.233-6.0567,2.1295c-5.0363,2.2414-10.0728,4.4828-15.1093,6.7241
		c-14.5568,6.4783-29.1138,12.9565-43.6705,19.4348c-7.7336,3.4417-15.4674,6.8835-23.2012,10.3253
		c-2.0451,0.9102-3.7049,3.4682-4.5321,6.1017c-1.4857,0.0707-2.9719,0.1363-4.4574,0.213
		c-0.3279,0.0169-0.6563,0.0246-0.9842,0.037c-0.1909,0.0072-0.3779,0.0277-0.5635,0.0518
		c-0.2466,0.0027-0.5026,0.0196-0.7791,0.0685c-3.4124,0.602-6.1949,5.1661-6.6969,8.2873
		c-6.6554,41.39-7.2368,84.0507-8.3339,125.8641c-1.6268,62.0228-1.6686,124.0878-1.2849,186.1268
		c0.4097,66.2065,1.4398,132.4088,2.8085,198.6021c1.1166,54.0129,2.468,108.0208,4.0281,162.0226
		c0.7343,25.4276,0.8607,50.99,2.3735,76.3882c0.0214,0.3606,0.0247,0.7231,0.0371,1.0842c0.0588,1.6936,0.8513,3.8906,2.9,3.9587
		c104.25,3.4736,208.5433,6.1427,312.8524,6.7922c64.2794,0.4001,128.6027,0.1486,192.8459-2.25
		c34.0451-1.2712,68.1814-2.9638,102.0346-6.9382c13.0955-1.5375,26.6944-3.0295,39.3173-7.0634
		c6.9133-2.2092,12.2802-4.9683,13.2708-13.1086c1.4758-12.1261,1.1312-24.6254,1.1745-36.8116
		c0.0055-1.4838-0.0041-2.9675-0.0024-4.4513c0.2167-0.4753,0.3996-1.0024,0.5048-1.6268
		c0.8134-4.8262,2.3073-9.3527,4.5963-13.2944c0.3268,0.5284,0.8175,0.9332,1.5016,1.1606
		c15.8013,5.252,34.5241,7.9093,45.8702-7.0602c9.1443-12.064,9.5623-28.3201,9.0693-42.8141
		c-0.4443-13.0629-0.8354-25.8182-0.4152-38.8588c1.3865-43.0546,2.7624-86.1091,3.8994-129.1713
		c0.1285-4.8785,0.2501-9.7571,0.3743-14.6356c2.2448-3.4742,3.9916-7.2207,4.587-11.3774
		c1.7051-11.9054,1.7944-24.1846,2.3461-36.1778c2.0006-43.5028,3.2048-87.0543,4.0383-130.5937
		C804.3289,332.9095,804.6417,315.0377,804.5343,297.1707z M718.0311,814.9681c0.1486-0.0537,0.318-0.1133,0.5336-0.1854
		C718.3859,814.8426,718.209,814.9066,718.0311,814.9681z M667.4843,665.561c0.2269,15.1716,0.4539,30.343,0.6808,45.5146
		c0.0892,5.9646-0.3216,12.2457,0.0343,18.2913c-19.454,9.913-31.1586,32.2202-35.5503,53.0121
		c-14.7682,0.3083-29.5367,0.6164-44.3049,0.9248c-38.4956,0.8035-76.9915,1.6069-115.4872,2.4103
		c-46.3739,0.968-92.7475,1.9359-139.1212,2.9038c-40.0994,0.837-80.1988,1.674-120.2982,2.5109
		c-13.277,0.2771-26.5541,0.5543-39.8311,0.8314c-4.136,0.0864-8.2721,0.1725-12.4081,0.2591
		c-1.2103,0.0251-2.6081-0.0934-3.9589-0.0939c-2.3282-27.8486-16.659-60.6788-46.9297-64.5706
		c0.162-14.8196,0.2993-29.6394,0.4235-44.4592c0.3273-38.9891,0.5679-77.9789,0.7154-116.9692
		c0.1854-49.0741,0.2282-98.1493,0.0074-147.2232c-0.2071-45.9992-0.5882-92.0042-1.6746-137.9919
		c-0.6923-29.3-0.9035-58.9563-4.2044-88.118c8.2847-0.0558,16.8301-2.1228,24.1632-5.3456
		c21.2792-9.3518,33.0603-29.4755,38.5319-51.1502c49.889-2.4853,99.8006-4.5881,149.7165-6.4448
		c71.0092-2.641,142.1299-5.1922,213.1996-4.6875c13.8048,0.0979,27.6199,0.3131,41.4063,1.0735
		c7.4296,0.4097,15.0986,0.7319,22.4348,2.2431c0.8986,8.1319,4.7509,16.3356,9.2344,22.8898
		c12.6067,18.4303,34.621,26.6889,55.9732,29.681c0.2628,17.57,0.5256,35.14,0.7885,52.7101
		c0.5072,33.9021,1.0145,67.8041,1.5214,101.7059c-6.8342,3.5601-13.0663,8.2424-18.2888,14.211
		c-9.1698,10.48-14.493,23.6-16.8831,37.2076c-0.9793,5.5751-1.6387,11.3855-1.5821,17.1261
		c-14.7927-0.0848-29.9171,5.905-39.8868,16.7348c-12.3699,13.4369-16.0202,32.3818-16.0444,50.0974
		c-0.0261,19.2265,3.0409,40.739,15.9016,55.9253c8.6149,10.1727,20.744,15.9568,33.832,17.1618
		c4.3127,24.7397,19.4536,51.7889,44.4299,59.6015c0.8312,0.2599,1.6856,0.4836,2.5421,0.7031
		C666.8727,624.6784,667.1784,645.1197,667.4843,665.561z M668.055,71.4474c-18.4924-1.6043-37.0577-2.3818-55.6064-2.971
		c-51.3868-1.6323-102.8318-1.5552-154.237-1.1589c-57.5378,0.4437-115.0703,1.4987-172.5932,2.8535
		c-45.8315,1.0794-91.6584,2.3664-137.4798,3.8204c2.1722-1.4017,4.3442-2.8033,6.5164-4.205
		c3.8345-2.4743,7.6693-4.9486,11.5038-7.423c0.8659-0.5587,1.7727-1.0981,2.6333-1.6829c1.7828,0.1687,8.3039-0.4282,8.8356-0.4463
		c20.3241-0.6914,40.6492-1.3449,60.9749-1.9754c33.5994-1.0422,67.2011-2.0158,100.8046-2.9127
		c40.3578-1.0772,80.7187-2.0459,121.083-2.8473c40.0667-0.7954,80.1378-1.4388,120.2114-1.7414
		c33.1252-0.2502,66.2643-0.3287,99.3845,0.3871c19.4717,0.4207,39.6647,0.1731,58.9202,3.537
		c1.1646,0.2035,2.3148,0.4514,3.467,0.715c0.4306,0.0985,0.8563,0.2275,1.2786,0.3566c0.6542,0.1999-0.9477-0.2587,0.2703,0.1183
		c0.3218,0.0996,0.553,0.2253,0.7148,0.3345c-0.0247-0.0271-0.0425-0.0435-0.0711-0.0764c0.0352,0.0405,0.0508,0.0524,0.0777,0.0808
		c0.0245,0.0166,0.0525,0.034,0.0734,0.0495c0.0027,0.0111,0.0079,0.0264,0.0115,0.039c0.0541,0.048,0.0821,0.0599,0.0912,0.0467
		c0.1169,0.1097,0.0889,0.1381-0.0884-0.0382c0.0217,0.0732,0.0497,0.1613,0.0986,0.2929c0.2411,0.6515,0.5193,1.2864,0.7495,1.9442
		c0.9524,2.7238,1.8015,8.5205,2.3197,12.6456c0.8607,6.8493,1.4008,13.7391,1.8534,20.626
		c2.5801,39.2579,2.5864,78.7199,2.5449,118.0457c-0.0319,30.1252-0.3304,60.2524-0.8994,90.3724
		c-0.0297,1.5726-0.0598,3.1452-0.0933,4.7177c-0.0129,0.602,0.0631,1.1031,0.1757,1.5586c-0.1694,0.1443-0.3353,0.295-0.505,0.4384
		c-8.07,6.8213-16.8506,13.2218-26.7743,17.0506c-3.22,1.2424-6.5033,1.8839-9.8245,2.2151
		c-1.9487-50.3107-3.9595-100.619-6.0441-150.9243c-1.2539-30.2584-2.5259-60.5163-3.8381-90.7722
		c-0.059-1.3578-0.1178-2.7155-0.1771-4.0733c-0.0928-2.124-0.8857-3.3554-2.9-3.9588
		C690.7674,73.2657,679.1765,72.4124,668.055,71.4474z M168.3454,60.5541c0.008,0.0193,0.0497,0.0333,0.0829,0.0487
		C168.3888,60.5982,168.358,60.585,168.3454,60.5541z M791.1271,468.5223c-0.5927,14.5669-1.1476,29.1572-2.2755,43.6949
		c-0.1502,1.937-0.3035,3.8761-0.5251,5.8064c-0.2576,2.2434-0.1167,2.3362-1.1696,4.6782
		c-3.2701,7.2721-9.8748,13.4753-15.4652,18.9869c-14.8841,14.6751-31.5617,27.5889-48.3204,40.0354
		c-4.3008,3.1944-8.6791,7.1708-13.4083,9.7284c-7.7986,4.2172-19.1745,6.0101-28.1611,5.822
		c-31.3868-0.6569-46.8954-30.715-52.9703-57.5834c-0.1439-0.6354-0.248-1.2871-0.3449-1.9316
		c-0.2252-1.4941-1.9454-2.2228-3.2512-2.275c-10.4158-0.4158-20.4905-4.2283-28.112-11.4568
		c-12.0204-11.4008-16.3168-28.8905-17.451-44.8506c-1.8646-26.2383,3.4548-59.0086,33.4948-65.3759
		c3.9092-0.8285,7.0267-1.1331,11.0142-1.0926c1.2578,0.0128,2.5048,0.0987,3.759,0.1741c0.5775,0.0346,2.7432,0.3555,0.4237,0.0038
		c2.8083,0.4257,7.5696-1.5586,7.2014-5.1561c-1.782-17.4078,2.5834-37.5268,13.4034-51.4093
		c10.9233-14.0149,28.0628-20.1175,45.3677-21.1391c10.8134-0.6384,20.627,0.6075,31.0301-3.1746
		c9.8218-3.5706,18.8035-9.61,26.9127-16.1083c12.053-9.6587,23.2798-20.8701,32.8706-33.0276
		c3.0422-0.8657,6.417-1.5122,9.3066-0.6787c0.0535,0.0154,0.0736,0.0107,0.1145,0.0184c0.3685,0.6607,0.0522,0.6281,0.0439,0.5432
		c0.393,4.0792,0.3713,8.2197,0.4215,12.3131c0.1928,15.7857-0.0618,31.5803-0.3257,47.3636
		C794.0081,384.4703,792.8366,426.5118,791.1271,468.5223z M149.4689,52.8269c4.7773-2.1261,9.5548-4.2523,14.3324-6.3784
		c0.4171-0.1857,0.9727-0.3644,1.511-0.5707c2.0075,0.2375,4.9217-0.4202,6.6532-0.4934
		c38.7485-1.6358,77.5034-3.1338,116.2607-4.5446c64.5573-2.35,129.125-4.4433,193.7046-6.0652
		c62.1909-1.562,124.4191-2.8796,186.6334-2.5268c21.7734,0.1234,43.5771,0.3762,65.3212,1.606
		c7.0668,0.3997,14.1476,0.8791,21.1694,1.7924c2.3939,0.3113,4.7907,0.6616,7.1503,1.1776
		c0.7728,0.169,1.5365,0.3663,2.2983,0.5761c0.2749,0.093,0.8425,0.2873,1.275,0.485c0.3853,0.176,1.0062,0.7249,1.1749,0.8564
		c0.3235,0.3703,0.6349,0.7491,0.9227,1.1567c0.5171,0.7316,0.9177,1.5247,1.3516,2.3049c0.0461,0.0826,0.0844,0.1501,0.1181,0.2094
		c0.0198,0.0494,0.0439,0.1085,0.0745,0.1813c0.2337,0.556,0.4677,1.1106,0.6862,1.6729
		c2.1808,5.6143,3.4528,11.5994,4.5659,17.5012c1.6889,8.9546,2.4842,15.3479,3.4703,24.3713
		c1.1724,10.7274,2.0438,21.4869,2.7718,32.2529c3.5112,51.937,4.2445,104.0825,4.398,156.1444
		c-0.65,0.1767-1.2918,0.3624-1.9215,0.5594c-1.3044,0.0585-2.6946,0.6879-3.7813,2.0893
		c-0.0409,0.0526-0.0837,0.1039-0.1247,0.1565c-0.2224,0.2332-0.4199,0.4822-0.5953,0.7467
		c-5.8035,7.3925-12.231,14.458-19.08,20.9934c0.4171-20.8924,0.6517-41.79,0.7944-62.6855
		c0.2823-41.3666,0.2939-82.7784-1.2698-124.1223c-0.5827-15.4067-1.2039-30.9202-3.2468-46.2163
		c-0.7346-5.4979-1.0724-15.9421-6.7358-18.9961c-4.47-2.4103-10.6899-2.6028-15.6039-3.1103
		c-9.7037-1.0019-19.4681-1.4507-29.2126-1.8251c-30.6086-1.1763-61.2654-1.228-91.8922-1.1575
		c-39.403,0.0907-78.8048,0.6035-118.2014,1.2854c-41.3223,0.7152-82.641,1.636-123.9564,2.6786
		c-36.3473,0.9172-72.6923,1.9317-109.0347,3.0258c-24.4271,0.7354-48.8534,1.5054-73.2778,2.3212
		c-5.597,0.1869-11.194,0.3759-16.7908,0.5702c-0.678,0.0235-1.5013-0.0737-2.1681,0.0757
		c-2.2068,0.4944-4.5029,2.4937-6.3607,3.6925c-3.9779,2.5667-7.9557,5.1335-11.9336,7.7003
		c-5.6852,3.6685-11.3706,7.337-17.0558,11.0056c-0.4976,0.3212-0.909,0.7131-1.2473,1.1467
		c-11.3495,0.3352-22.7066,0.6317-34.0589,1.0136C115.5276,67.9317,132.4982,60.3793,149.4689,52.8269z M675.7581,822.9042
		c-13.6947,1.591-24.7238,2.5099-38.5538,3.4857c-18.8823,1.3323-37.7918,2.2689-56.7062,3.0009
		c-59.5142,2.3035-119.102,2.6915-178.6541,2.4669c-95.4937-0.3603-190.9787-2.5364-286.4249-5.4691
		c-13.7444-0.4221-27.4878-0.8665-41.2311-1.3223c-0.6646-19.4532-1.2605-38.9089-1.8378-58.3649
		c-1.523-51.3282-2.8519-102.6624-3.9784-154.0009c-1.4302-65.1814-2.5424-130.3713-3.1081-195.5662
		c-0.5512-63.5102-0.6767-127.0406,0.5869-190.5435c0.5152-25.898,1.2569-51.7976,2.5855-77.6679
		c1.0062-19.5912,2.1121-37.4289,4.4395-56.0469c0.1022-0.8173,0.2175-1.6328,0.3254-2.4493
		c16.4332-0.6071,32.8687-1.1675,49.3044-1.7081c45.7568-1.505,91.5194-2.8355,137.287-3.9746
		c57.1906-1.4234,114.3903-2.5608,171.596-3.1554c53.0235-0.5512,106.0762-0.7642,159.0918,0.5021
		c20.0857,0.4798,40.1799,1.1527,60.2277,2.5095c13.1888,0.8927,26.5749,1.813,39.5471,4.4883
		c1.0735,0.2214,2.1426,0.4636,3.2062,0.7265c0.9351,21.4534,1.843,42.9079,2.7421,64.3627
		c2.2964,54.7903,4.5178,109.5838,6.6559,164.3805c0.1038,2.6663,0.2047,5.3329,0.3082,7.9994
		c-3.5096-0.0082-7.0289-0.0052-10.5297,0.3323c-7.4252,0.7159-14.7737,2.3141-21.7145,4.8822
		c-0.4421-29.5589-0.8845-59.1179-1.3267-88.677c-0.2269-15.1715-0.454-30.3431-0.6808-45.5146
		c-0.1077-7.2063,0.2098-14.5679-0.3254-21.7588c-0.0233-0.312-0.0096-0.6308-0.014-0.9439
		c-0.0203-1.3577-1.1465-2.8745-2.5452-3.0444c-20.8812-2.538-42.5825-9.8275-54.9604-27.9233
		c-4.3816-6.4055-7.6174-14.0118-7.8536-21.4161c-0.0478-1.4946-1.1403-2.6991-2.5449-3.0443
		c-7.0709-1.7382-14.5301-2.1308-21.7691-2.5834c-11.7795-0.7365-23.5892-1.0073-35.3885-1.1802
		c-32.532-0.4765-65.0804,0.0356-97.6056,0.7294c-71.0043,1.5147-141.9846,4.2309-212.9353,7.3407
		c-22.3702,0.9804-44.7399,1.9932-67.1038,3.1158c-1.9103,0.0958-3.4122,1.6675-4.177,3.5094
		c-0.0676,0.1513-0.12,0.3043-0.1785,0.4572c-0.0168,0.0494-0.0396,0.0968-0.0555,0.1464c-0.1477,0.4089-0.2752,0.8186-0.357,1.2167
		c-4.1484,20.1793-14.4999,39.3257-34.5125,47.1337c-7.7012,3.0046-17.1445,4.509-24.4604,3.4888
		c-3.2985-0.46-6.3305,3.3627-5.8348,6.5049c4.1621,26.3802,3.9875,53.7848,4.7314,80.4091
		c1.2429,44.4936,1.6801,89.0103,1.9501,133.5188c0.2988,49.2412,0.3018,98.4839,0.156,147.7257
		c-0.1211,40.9609-0.3515,81.9214-0.6747,122.881c-0.1052,13.344-0.2202,26.688-0.3488,40.0321
		c-0.0393,4.0992-0.0796,8.1985-0.1222,12.2977c-0.0036,0.3652-0.017,1.6406-0.0192,1.8484
		c-0.0038,0.3704-0.0107,1.0146-0.0132,1.2454c-0.0088,0.8195-0.0439,1.6439-0.0266,2.4633
		c0.0058,0.2787-0.0063,0.5591-0.0093,0.8381c-0.0181,1.5981,0.4323,4.0927,2.5323,4.244
		c30.3902,2.1898,43.302,35.4509,44.6383,62.0686c0.1019,2.0255,1.7523,3.1073,3.5992,3.0687
		c16.0356-0.3348,32.0709-0.6694,48.1065-1.004c38.4959-0.8035,76.9915-1.6071,115.4874-2.4106
		c46.3737-0.9678,92.7473-1.9358,139.1212-2.9037c40.0994-0.8369,80.1988-1.674,120.2982-2.511
		c13.2767-0.2771,26.554-0.5542,39.8308-0.8313c6.2004-0.1293,12.7437,0.3245,18.9119-0.3947
		c0.2694-0.0316,0.5539-0.0117,0.826-0.0173c2.5562-0.0534,4.4324-3.1552,4.7679-5.3298
		c3.0307-19.6364,14.4321-42.534,33.1455-50.0131c2.4908-0.9955,3.7397-3.7063,3.7018-6.2371
		c-0.2762-18.4747-0.5528-36.9495-0.829-55.4243c-0.3449-23.058-0.6899-46.116-1.0348-69.1741
		c12.7585,1.2976,26.7889-1.2395,37.7473-7.2572c1.1067,36.3974,2.1038,72.7979,2.8511,109.204
		c0.736,35.8612,2.4359,72.1841,0.2581,108.0364c-0.3853,0.1299-0.7686,0.2653-1.1594,0.3825
		C702.1325,819.8626,688.7591,821.3936,675.7581,822.9042z M719.2611,814.5115c-0.0143,0.0042-0.0626,0.0413-0.1395,0.1069
		c-0.0027,0.0018-0.0057,0.0034-0.0085,0.0052c0.0895-0.0789,0.1733-0.1536,0.2485-0.222
		C719.3353,814.4385,719.3029,814.475,719.2611,814.5115z M727.5228,753.2362c-0.1071-11.6973-0.2826-23.3942-0.491-35.0894
		c-0.7557-42.4026-1.9042-84.7987-3.2037-127.189c12.5616-9.1671,24.8756-18.7119,36.7026-28.8049
		c-0.2186,15.8667-0.4372,31.7331-0.6561,47.5998c-0.4935,35.8217-0.987,71.6436-1.4808,107.4653
		c-0.0859,6.2385-0.1719,12.4767-0.2578,18.7151c-5.0789,0.1928-10.2018,1.4537-14.771,3.4337
		C736.488,742.3472,731.2842,747.276,727.5228,753.2362z M778.5855,650.0447c-0.4229,13.1312-0.8829,26.2616-1.2665,39.3942
		c-0.1505,5.1628-0.1249,10.2889,0.1271,15.4551c0.3392,6.9432,0.8082,13.8867,0.7346,20.8421
		c-0.0637,6.0115-0.6517,13.0415-2.4202,17.7746c-0.8282,2.2166-0.3875,1.251-1.3237,2.8017
		c-0.1074,0.178-0.1799,0.3029-0.2383,0.4059c-0.0577,0.0719-0.1219,0.1526-0.201,0.2538
		c-0.0494,0.0635-1.0568,1.1708-0.8746,1.0295c-1.4124,1.3263-2.8401,2.1425-5.1296,2.8505
		c-7.3326,2.2681-15.7764,0.495-23.1241-1.7662c0.6984-0.3234,1.4171-0.6264,2.1638-0.9012
		c4.4406-1.6345,10.1323-2.4298,13.9696-2.0297c3.1483,0.3283,4.811-2.9961,4.8484-5.6917
		c0.3098-22.4927,0.6198-44.9855,0.9296-67.4783c0.4937-35.8218,0.9872-71.6436,1.481-107.4653
		c0.0467-3.4036,0.0936-6.8073,0.1406-10.2109c4.5807-4.0676,9.0869-8.2476,13.3207-12.6756
		C780.7937,578.4402,779.7386,614.2441,778.5855,650.0447z"/>
	<path d="M716.1266,381.415c-0.2263-8.161-0.4526-16.3219-0.6791-24.4828c-0.1315-4.7493-6.4253-1.1689-6.3237,2.4993
		c0.6223,22.4318,1.2446,44.8635,1.8669,67.2953c0.9911,35.7247,1.9822,71.4494,2.9733,107.1741
		c0.2263,8.1608,0.4529,16.3217,0.6791,24.4827c0.1318,4.7491,6.4256,1.1689,6.3237-2.4995
		c-0.6223-22.4318-1.2446-44.8635-1.8668-67.2953C718.1088,452.8643,717.1177,417.1396,716.1266,381.415z"/>
	<g>
		<circle cx="667.8896" cy="385.7495" r="13.1455"/>
	</g>
	<g>
		<ellipse cx="618.6658" cy="474.6227" rx="21.1339" ry="19.2636"/>
	</g>
	<g>
		<path d="M677.4835,537.2838c-8.559,0-15.4979,7.6243-15.4979,17.0293s6.9388,17.0293,15.4979,17.0293
			c8.5594,0,15.4982-7.6243,15.4982-17.0293S686.0428,537.2838,677.4835,537.2838z"/>
	</g>
	<g>
		<path d="M665.8427,513.8384c6.0988,0.5421,30.5053,2.1102,13.324-31.39c-6.2251-12.1382-9.069-20.8853-10.1766-27.1227
			c7.5265-0.346,13.5272-6.5398,13.5272-14.1517c0-7.8342-6.3508-14.1851-14.1849-14.1851c-7.8344,0-14.1852,6.3509-14.1852,14.1851
			c0,5.8712,3.5673,10.9088,8.6527,13.0649c0.7896,7.9084,0.6451,23.2357-9.543,35.8306
			C638.8453,507.8864,659.7436,513.2966,665.8427,513.8384z"/>
	</g>
	<path d="M744.8287,56.2989c-0.0206-0.0185-0.0555-0.0574-0.0849-0.0885c-0.0022-0.0014-0.0044-0.0029-0.0066-0.0044
		c0.033,0.0359,0.0679,0.075,0.0942,0.1013C744.8309,56.3052,744.8293,56.301,744.8287,56.2989z"/>
	<path d="M736.934,265.9662c0.2026,15.5091,0.5762,31.1248-0.3892,46.6172c0.069-1.1097,3.7516-4.1609,3.8862-6.322
		c2.0591-33.0402,0.1604-66.5748-0.7404-99.6244c-1.0444-38.3228-2.409-76.6368-3.9194-114.9439
		c-0.3257-8.2659-0.6558-16.5317-1.0073-24.7966c0.0401,0.9491-3.9745,4.2471-3.8864,6.3221
		c0.9828,23.1019,1.8559,46.2091,2.6803,69.3171C735.0248,183.6658,736.396,224.812,736.934,265.9662z"/>
	<path d="M724.0236,137.6291c0.0253,0.9757-3.9408,4.2305-3.8862,6.322c1.2421,47.6319,2.4905,95.2639,3.8263,142.8932
		c0.2845,10.1512,0.5462,20.3041,0.9057,30.453c-0.0341-0.9606,3.96-4.2397,3.8861-6.322
		c-1.8207-51.3985-2.881-102.8321-4.2316-154.2446C724.3566,150.3635,724.1894,143.9963,724.0236,137.6291z"/>
	<path d="M746.4638,602.1604c0-5.5759,0-11.1516,0-16.7275c0,1.0171-3.8859,4.2065-3.8859,6.322c0,39.1196,0,78.2391,0,117.3587
		c0,5.5757,0,11.1516,0,16.7275c0-1.0169,3.8859-4.2064,3.8859-6.322C746.4638,680.3995,746.4638,641.28,746.4638,602.1604z"/>
	<path d="M725.2156,61.1572c-37.3826-1.2142-74.7913-1.8266-112.1889-2.3119c-86.1913-1.1187-172.4098-0.9815-258.5901,0.861
		c-56.1125,1.1997-112.2137,3.1416-168.2547,6.2418c-0.7214,0.0399-1.2004,2.6462-1.5387,2.6649
		c97.6761-5.4033,195.5305-7.4166,293.3459-7.7524c69.2535-0.2377,138.5156,0.3872,207.7519,1.9633
		c12.6462,0.2879,25.2933,0.5875,37.9362,0.9982C724.3361,63.8435,724.9614,61.149,725.2156,61.1572z"/>
</g>
</svg>
